<?xml version="1.0" encoding="UTF-8"?>
<!-- Created with Inkscape (http://www.inkscape.org/) -->
<svg width="59.267mm" height="42.333mm" version="1.1" viewBox="0 0 59.267 42.333" xmlns="http://www.w3.org/2000/svg">
 <rect transform="matrix(1 0 -.65457 .756 0 0)" x="10.996" y="-4.8923e-7" width="48.271" height="16.799" fill="#5fbcd3"/>
 <g fill="#fff" stroke-width=".26458px" aria-label="Application">
  <path d="m16.745 7.7793-0.27517-0.89958h-1.3758l-0.27517 0.89958h-0.86254l1.3335-3.7941h0.97896l1.3388 3.7941zm-0.74083-2.45q-0.02646-0.089958-0.06879-0.22754-0.04233-0.13758-0.08467-0.28046-0.04233-0.14288-0.06879-0.24871-0.02646 0.10583-0.07408 0.26458-0.04233 0.15346-0.08467 0.29633-0.03704 0.13758-0.05821 0.19579l-0.26988 0.87842h0.98425z"/>
  <path d="m19.629 4.8371q0.48683 0 0.78846 0.381 0.30163 0.37571 0.30163 1.1113t-0.31221 1.1218q-0.31221 0.381-0.79904 0.381-0.31221 0-0.49742-0.11113-0.18521-0.11642-0.30162-0.25929h-0.04233q0.04233 0.22225 0.04233 0.42333v1.1642h-0.78846v-4.1593h0.64029l0.11112 0.37571h0.03704q0.11642-0.17463 0.31221-0.30163 0.19579-0.127 0.508-0.127zm-0.254 0.62971q-0.30692 0-0.43392 0.1905-0.12171 0.1905-0.13229 0.58208v0.084667q0 0.41804 0.12171 0.64558 0.127 0.22225 0.45508 0.22225 0.26988 0 0.39688-0.22225 0.13229-0.22754 0.13229-0.65088 0-0.85196-0.53975-0.85196z"/>
  <path d="m22.979 4.8371q0.48683 0 0.78846 0.381 0.30163 0.37571 0.30163 1.1113t-0.31221 1.1218q-0.31221 0.381-0.79904 0.381-0.31221 0-0.49742-0.11113-0.18521-0.11642-0.30162-0.25929h-0.04233q0.04233 0.22225 0.04233 0.42333v1.1642h-0.78846v-4.1593h0.64029l0.11112 0.37571h0.03704q0.11642-0.17463 0.31221-0.30163t0.508-0.127zm-0.254 0.62971q-0.30692 0-0.43392 0.1905-0.12171 0.1905-0.13229 0.58208v0.084667q0 0.41804 0.12171 0.64558 0.127 0.22225 0.45508 0.22225 0.26988 0 0.39688-0.22225 0.13229-0.22754 0.13229-0.65088 0-0.85196-0.53975-0.85196z"/>
  <path d="m25.508 7.7793h-0.78846v-4.0217h0.78846z"/>
  <path d="m26.731 3.7576q0.17462 0 0.30162 0.084667 0.127 0.079375 0.127 0.30163 0 0.21696-0.127 0.30163-0.127 0.084667-0.30162 0.084667-0.17992 0-0.30692-0.084667-0.12171-0.084667-0.12171-0.30163 0-0.22225 0.12171-0.30163 0.127-0.084667 0.30692-0.084667zm0.39158 1.1324v2.8893h-0.78846v-2.8893z"/>
  <path d="m29.122 7.8322q-0.64558 0-1.0001-0.35454-0.34925-0.35983-0.34925-1.1271 0-0.52917 0.17992-0.86254 0.17992-0.33338 0.49742-0.49213 0.32279-0.15875 0.74083-0.15875 0.29633 0 0.51329 0.058208 0.22225 0.058208 0.38629 0.13758l-0.23283 0.60854q-0.18521-0.074083-0.34925-0.12171-0.15875-0.047625-0.3175-0.047625-0.61383 0-0.61383 0.87313 0 0.43392 0.15875 0.64029 0.16404 0.20638 0.45508 0.20638 0.24871 0 0.43921-0.0635 0.1905-0.068792 0.37042-0.18521v0.67204q-0.17992 0.11642-0.381 0.16404-0.19579 0.052917-0.49742 0.052917z"/>
  <path d="m31.853 4.8318q0.58208 0 0.889 0.254 0.31221 0.24871 0.31221 0.76729v1.9262h-0.55033l-0.15346-0.39158h-0.02117q-0.18521 0.23283-0.39158 0.33867t-0.56621 0.10583q-0.38629 0-0.64029-0.22225-0.254-0.22754-0.254-0.69321 0-0.46038 0.32279-0.67733 0.32279-0.22225 0.96838-0.24342l0.50271-0.015875v-0.127q0-0.22754-0.12171-0.33338-0.11642-0.10583-0.32808-0.10583t-0.41275 0.0635q-0.20108 0.058208-0.40217 0.14817l-0.25929-0.53446q0.23283-0.12171 0.51329-0.1905 0.28575-0.068792 0.59267-0.068792zm0.11112 1.6193q-0.381 0.010583-0.52917 0.13758-0.14817 0.127-0.14817 0.33338 0 0.17992 0.10583 0.25929 0.10583 0.074083 0.27517 0.074083 0.254 0 0.42862-0.14817 0.17462-0.15346 0.17462-0.42863v-0.23812z"/>
  <path d="m35.081 7.2025q0.13229 0 0.254-0.026458 0.12171-0.026458 0.24342-0.0635v0.58738q-0.127 0.052917-0.3175 0.089958-0.18521 0.042333-0.40746 0.042333-0.25929 0-0.46567-0.084667-0.20108-0.084666-0.32279-0.29104-0.11642-0.21167-0.11642-0.58208v-1.3917h-0.37571v-0.33338l0.43392-0.26458 0.22754-0.60854h0.50271v0.61383h0.80963v0.59267h-0.80963v1.3917q0 0.16404 0.09525 0.24871 0.09525 0.079375 0.24871 0.079375z"/>
  <path d="m36.557 3.7576q0.17463 0 0.30163 0.084667 0.127 0.079375 0.127 0.30163 0 0.21696-0.127 0.30163-0.127 0.084667-0.30163 0.084667-0.17992 0-0.30692-0.084667-0.12171-0.084667-0.12171-0.30163 0-0.22225 0.12171-0.30163 0.127-0.084667 0.30692-0.084667zm0.39158 1.1324v2.8893h-0.78846v-2.8893z"/>
  <path d="m40.399 6.3294q0 0.71967-0.381 1.1113-0.37571 0.39158-1.0266 0.39158-0.40217 0-0.71967-0.17463-0.31221-0.17463-0.49212-0.508-0.17992-0.33867-0.17992-0.82021 0-0.71967 0.37571-1.106 0.37571-0.38629 1.0319-0.38629 0.40746 0 0.71967 0.17463 0.31221 0.17463 0.49212 0.508 0.17992 0.32808 0.17992 0.80963zm-1.995 0q0 0.42863 0.13758 0.65088 0.14288 0.21696 0.46038 0.21696 0.31221 0 0.44979-0.21696 0.14288-0.22225 0.14288-0.65088 0-0.42863-0.14288-0.64029-0.13758-0.21696-0.45508-0.21696-0.31221 0-0.45508 0.21696-0.13758 0.21167-0.13758 0.64029z"/>
  <path d="m42.69 4.8371q0.46567 0 0.74612 0.254 0.28046 0.24871 0.28046 0.80433v1.8838h-0.78846v-1.688q0-0.31221-0.11112-0.46567-0.11112-0.15875-0.35454-0.15875-0.35983 0-0.49212 0.24871-0.13229 0.24342-0.13229 0.70379v1.36h-0.78846v-2.8893h0.60325l0.10583 0.37042h0.04233q0.13759-0.22225 0.37571-0.32279 0.24342-0.10054 0.51329-0.10054z"/>
 </g>
 <rect transform="matrix(1 0 -.65457 .756 0 0)" x="23.825" y="19.599" width="48.271" height="16.799" fill="#f55"/>
 <g fill="#fff" stroke-width=".26458px" aria-label="Middleware">
  <path d="m15.565 22.596-0.91017-2.9633h-0.02117q0.0053 0.10583 0.01587 0.3175 0.01058 0.21167 0.02117 0.45508 0.01058 0.23812 0.01058 0.43392v1.7568h-0.71438v-3.7783h1.0901l0.89429 2.8893h0.01587l0.94721-2.8893h1.0901v3.7783h-0.74612v-1.7886q0-0.17992 0.0053-0.41275 0.01058-0.23283 0.01588-0.43921 0.01058-0.21167 0.01587-0.3175h-0.02117l-0.97367 2.958z"/>
  <path d="m19.291 18.574q0.17462 0 0.30162 0.08467 0.127 0.07937 0.127 0.30162 0 0.21696-0.127 0.30162-0.127 0.08467-0.30162 0.08467-0.17992 0-0.30692-0.08467-0.12171-0.08467-0.12171-0.30162 0-0.22225 0.12171-0.30162 0.127-0.08467 0.30692-0.08467zm0.39158 1.1324v2.8893h-0.78846v-2.8893z"/>
  <path d="m21.423 22.649q-0.48154 0-0.78846-0.37571-0.30162-0.381-0.30162-1.1165 0-0.74083 0.30692-1.1218 0.30692-0.381 0.80433-0.381 0.31221 0 0.51329 0.12171 0.20108 0.12171 0.3175 0.30162h0.02646q-0.01587-0.08467-0.03704-0.24342-0.02117-0.16404-0.02117-0.33338v-0.92604h0.78846v4.0217h-0.60325l-0.15346-0.37571h-0.03175q-0.11642 0.17992-0.31221 0.30692-0.19579 0.12171-0.508 0.12171zm0.27517-0.62971q0.32808 0 0.46038-0.1905 0.13229-0.19579 0.13758-0.58208v-0.08467q0-0.42333-0.13229-0.64558-0.127-0.22225-0.47625-0.22225-0.25929 0-0.40746 0.22754-0.14817 0.22225-0.14817 0.64558 0 0.42333 0.14817 0.64029 0.14817 0.21167 0.41804 0.21167z"/>
  <path d="m24.773 22.649q-0.48154 0-0.78846-0.37571-0.30162-0.381-0.30162-1.1165 0-0.74083 0.30692-1.1218t0.80433-0.381q0.31221 0 0.51329 0.12171 0.20108 0.12171 0.3175 0.30162h0.02646q-0.01588-0.08467-0.03704-0.24342-0.02117-0.16404-0.02117-0.33338v-0.92604h0.78846v4.0217h-0.60325l-0.15346-0.37571h-0.03175q-0.11642 0.17992-0.31221 0.30692-0.19579 0.12171-0.508 0.12171zm0.27517-0.62971q0.32808 0 0.46038-0.1905 0.13229-0.19579 0.13758-0.58208v-0.08467q0-0.42333-0.13229-0.64558-0.127-0.22225-0.47625-0.22225-0.25929 0-0.40746 0.22754-0.14817 0.22225-0.14817 0.64558 0 0.42333 0.14817 0.64029 0.14817 0.21167 0.41804 0.21167z"/>
  <path d="m27.995 22.596h-0.78846v-4.0217h0.78846z"/>
  <path d="m30.012 19.654q0.59796 0 0.94721 0.34396 0.34925 0.33867 0.34925 0.96838v0.381h-1.8627q0.01058 0.33338 0.19579 0.52388 0.1905 0.1905 0.52388 0.1905 0.28046 0 0.508-0.05292 0.22754-0.05821 0.47096-0.17462v0.60854q-0.21167 0.10583-0.44979 0.15346-0.23283 0.05292-0.56621 0.05292-0.43392 0-0.76729-0.15875-0.33338-0.16404-0.52388-0.49213-0.1905-0.32808-0.1905-0.8255 0-0.508 0.16933-0.84138 0.17462-0.33867 0.48154-0.508 0.30692-0.16933 0.71438-0.16933zm0.0053 0.56092q-0.22754 0-0.381 0.14817-0.14817 0.14817-0.17462 0.46038h1.106q-0.0053-0.26458-0.13758-0.43392-0.13229-0.17462-0.41275-0.17462z"/>
  <path d="m33.996 21.585q-0.02117-0.08996-0.0635-0.26458-0.03704-0.17992-0.08467-0.381-0.04762-0.20638-0.08996-0.37571-0.04233-0.17462-0.05821-0.254h-0.02117q-0.01587 0.07938-0.05821 0.254-0.03704 0.16933-0.08467 0.37571-0.04763 0.20108-0.08996 0.381t-0.0635 0.27517l-0.23283 1.0001h-0.84667l-0.82021-2.8893h0.78317l0.33338 1.2806q0.03704 0.13229 0.0635 0.3175 0.03175 0.18521 0.05821 0.35983 0.02646 0.16933 0.03704 0.26988h0.02117q0.0053-0.07408 0.02117-0.19579 0.01588-0.127 0.03704-0.25929 0.02646-0.13229 0.04233-0.23812 0.02117-0.11112 0.03175-0.14817l0.35454-1.3864h0.86783l0.33867 1.3864q0.02117 0.07408 0.04763 0.23812 0.03175 0.16404 0.05292 0.33338 0.02646 0.16933 0.02646 0.26988h0.02117q0.01058-0.08996 0.03704-0.25929 0.02646-0.17462 0.05821-0.36513 0.03704-0.1905 0.07408-0.32279l0.34396-1.2806h0.77258l-0.83079 2.8893h-0.85725z"/>
  <path d="m37.557 19.648q0.58208 0 0.889 0.254 0.31221 0.24871 0.31221 0.76729v1.9262h-0.55033l-0.15346-0.39158h-0.02117q-0.18521 0.23283-0.39158 0.33867-0.20638 0.10583-0.56621 0.10583-0.38629 0-0.64029-0.22225-0.254-0.22754-0.254-0.69321 0-0.46038 0.32279-0.67733 0.32279-0.22225 0.96838-0.24342l0.50271-0.01588v-0.127q0-0.22754-0.12171-0.33338-0.11642-0.10583-0.32808-0.10583-0.21167 0-0.41275 0.0635-0.20108 0.05821-0.40217 0.14817l-0.25929-0.53446q0.23283-0.12171 0.51329-0.1905 0.28575-0.06879 0.59267-0.06879zm0.11112 1.6193q-0.381 0.01058-0.52917 0.13758-0.14817 0.127-0.14817 0.33338 0 0.17992 0.10583 0.25929 0.10583 0.07408 0.27517 0.07408 0.254 0 0.42862-0.14817 0.17463-0.15346 0.17463-0.42862v-0.23812z"/>
  <path d="m41.182 19.654q0.05821 0 0.13758 0.0053 0.07937 0.0053 0.127 0.01588l-0.05821 0.74083q-0.03704-0.01058-0.11112-0.01587-0.06879-0.01058-0.12171-0.01058-0.20108 0-0.38629 0.07408-0.18521 0.06879-0.30162 0.22754-0.11112 0.15875-0.11112 0.43392v1.4711h-0.78846v-2.8893h0.59796l0.11642 0.48683h0.03704q0.127-0.22225 0.34925-0.381t0.51329-0.15875z"/>
  <path d="m43.055 19.654q0.59796 0 0.94721 0.34396 0.34925 0.33867 0.34925 0.96838v0.381h-1.8627q0.01058 0.33338 0.19579 0.52388 0.1905 0.1905 0.52388 0.1905 0.28046 0 0.508-0.05292 0.22754-0.05821 0.47096-0.17462v0.60854q-0.21167 0.10583-0.44979 0.15346-0.23283 0.05292-0.56621 0.05292-0.43392 0-0.76729-0.15875-0.33338-0.16404-0.52388-0.49213-0.1905-0.32808-0.1905-0.8255 0-0.508 0.16933-0.84138 0.17462-0.33867 0.48154-0.508 0.30692-0.16933 0.71438-0.16933zm0.0053 0.56092q-0.22754 0-0.381 0.14817-0.14817 0.14817-0.17462 0.46038h1.106q-0.0053-0.26458-0.13758-0.43392-0.13229-0.17462-0.41275-0.17462z"/>
 </g>
 <rect transform="matrix(1 0 -.65457 .756 0 0)" x="36.654" y="39.198" width="48.271" height="16.799" fill="#5fd35f"/>
 <g fill="#fff" stroke-width=".26458px" aria-label="Server">
  <path d="m23.246 36.365q0 0.50271-0.36513 0.80433-0.35983 0.29633-1.0266 0.29633-0.59796 0-1.0689-0.22754v-0.74613q0.26988 0.11642 0.55562 0.21696 0.29104 0.09525 0.57679 0.09525 0.29633 0 0.41804-0.11112 0.127-0.11642 0.127-0.29104 0-0.14288-0.10054-0.24342-0.09525-0.10054-0.25929-0.18521-0.16404-0.08996-0.37571-0.1905-0.13229-0.0635-0.28575-0.14817-0.15346-0.08996-0.29633-0.21696-0.13758-0.13229-0.22754-0.3175-0.08996-0.18521-0.08996-0.4445 0-0.508 0.34396-0.78846 0.34396-0.28575 0.93663-0.28575 0.29633 0 0.56092 0.06879 0.26988 0.06879 0.56092 0.19579l-0.25929 0.62442q-0.25929-0.10583-0.46567-0.16404-0.20638-0.05821-0.42333-0.05821-0.22754 0-0.34925 0.10583-0.12171 0.10583-0.12171 0.27517 0 0.20108 0.17992 0.3175 0.17992 0.11642 0.53446 0.28575 0.29104 0.13758 0.49212 0.28575 0.20638 0.14817 0.3175 0.34925 0.11113 0.20108 0.11113 0.49742z"/>
  <path d="m25.061 34.47q0.59796 0 0.94721 0.34396 0.34925 0.33867 0.34925 0.96838v0.381h-1.8627q0.01058 0.33338 0.19579 0.52388 0.1905 0.1905 0.52388 0.1905 0.28046 0 0.508-0.05292 0.22754-0.05821 0.47096-0.17463v0.60854q-0.21167 0.10583-0.44979 0.15346-0.23283 0.05292-0.56621 0.05292-0.43392 0-0.76729-0.15875-0.33338-0.16404-0.52388-0.49213-0.1905-0.32808-0.1905-0.8255 0-0.508 0.16933-0.84138 0.17462-0.33867 0.48154-0.508 0.30692-0.16933 0.71438-0.16933zm0.0053 0.56092q-0.22754 0-0.381 0.14817-0.14817 0.14817-0.17462 0.46038h1.106q-0.0053-0.26458-0.13758-0.43392-0.13229-0.17463-0.41275-0.17463z"/>
  <path d="m28.612 34.47q0.05821 0 0.13758 0.0053 0.07937 0.0053 0.127 0.01588l-0.05821 0.74083q-0.03704-0.01058-0.11112-0.01588-0.06879-0.01058-0.12171-0.01058-0.20108 0-0.38629 0.07408-0.18521 0.06879-0.30162 0.22754-0.11112 0.15875-0.11112 0.43392v1.4711h-0.78846v-2.8893h0.59796l0.11642 0.48683h0.03704q0.127-0.22225 0.34925-0.381 0.22225-0.15875 0.51329-0.15875z"/>
  <path d="m30.088 37.413-1.1007-2.8893h0.8255l0.55562 1.6457q0.04763 0.14817 0.07408 0.30692 0.03175 0.15875 0.03704 0.28575h0.02117q0.01588-0.28575 0.11642-0.59267l0.55562-1.6457h0.8255l-1.1007 2.8893z"/>
  <path d="m33.602 34.47q0.59796 0 0.94721 0.34396 0.34925 0.33867 0.34925 0.96838v0.381h-1.8627q0.01058 0.33338 0.19579 0.52388 0.1905 0.1905 0.52388 0.1905 0.28046 0 0.508-0.05292 0.22754-0.05821 0.47096-0.17463v0.60854q-0.21167 0.10583-0.44979 0.15346-0.23283 0.05292-0.56621 0.05292-0.43392 0-0.76729-0.15875-0.33338-0.16404-0.52388-0.49213-0.1905-0.32808-0.1905-0.8255 0-0.508 0.16933-0.84138 0.17462-0.33867 0.48154-0.508 0.30692-0.16933 0.71438-0.16933zm0.0053 0.56092q-0.22754 0-0.381 0.14817-0.14817 0.14817-0.17463 0.46038h1.106q-0.0053-0.26458-0.13758-0.43392-0.13229-0.17463-0.41275-0.17463z"/>
  <path d="m37.153 34.47q0.05821 0 0.13758 0.0053 0.07937 0.0053 0.127 0.01588l-0.05821 0.74083q-0.03704-0.01058-0.11113-0.01588-0.06879-0.01058-0.12171-0.01058-0.20108 0-0.38629 0.07408-0.18521 0.06879-0.30162 0.22754-0.11112 0.15875-0.11112 0.43392v1.4711h-0.78846v-2.8893h0.59796l0.11642 0.48683h0.03704q0.127-0.22225 0.34925-0.381 0.22225-0.15875 0.51329-0.15875z"/>
 </g>
</svg>
