<?xml version="1.0" encoding="UTF-8"?>
<!-- Created with Inkscape (http://www.inkscape.org/) -->
<svg width="179.59mm" height="42.333mm" version="1.1" viewBox="0 0 179.59 42.333" xmlns="http://www.w3.org/2000/svg">
 <g fill="#808080" stroke-width="1.8558px" aria-label="Servio">
  <path d="m85.579 27.915q0 3.526-2.561 5.6416-2.5239 2.0785-7.2005 2.0785-4.1941 0-7.4974-1.596v-5.2333q1.8929 0.81655 3.8972 1.5217 2.0414 0.66808 4.0456 0.66808 2.0785 0 2.9321-0.77943 0.89078-0.81655 0.89078-2.0414 0-1.0021-0.7052-1.7073-0.66808-0.7052-1.8187-1.2991-1.1506-0.63097-2.6352-1.3362-0.9279-0.44539-2.0043-1.0392-1.0764-0.63097-2.0785-1.5217-0.96501-0.9279-1.596-2.2269t-0.63097-3.1177q0-3.5631 2.4125-5.5303 2.4125-2.0043 6.5695-2.0043 2.0785 0 3.9343 0.48251 1.8929 0.48251 3.9343 1.3733l-1.8187 4.3797q-1.8187-0.74232-3.2662-1.1506t-2.9693-0.40827q-1.596 0-2.4496 0.74232t-0.85366 1.93q0 1.4104 1.2619 2.2269 1.2619 0.81655 3.7487 2.0043 2.0414 0.96501 3.4518 2.0043 1.4475 1.0392 2.2269 2.4496 0.77943 1.4104 0.77943 3.4889z"/>
  <path d="m98.31 14.628q4.1941 0 6.6437 2.4125 2.4496 2.3754 2.4496 6.7922v2.6723h-13.065q0.07423 2.3383 1.3733 3.6745 1.3362 1.3362 3.6745 1.3362 1.9671 0 3.5631-0.37116 1.596-0.40827 3.3033-1.2248v4.2683q-1.4846 0.74232-3.1548 1.0764-1.6331 0.37116-3.9714 0.37116-3.0435 0-5.3818-1.1135-2.3383-1.1506-3.6745-3.4518-1.3362-2.3012-1.3362-5.7901 0-3.5631 1.1877-5.9014 1.2248-2.3754 3.3775-3.5631 2.1527-1.1877 5.0106-1.1877zm0.03712 3.9343q-1.596 0-2.6723 1.0392-1.0392 1.0392-1.2248 3.2291h7.7572q-0.0371-1.8558-0.96501-3.0435-0.9279-1.2248-2.895-1.2248z"/>
  <path d="m123.21 14.628q0.40828 0 0.96501 0.03712 0.55674 0.03712 0.89078 0.11135l-0.40827 5.1962q-0.25981-0.07423-0.77943-0.11135-0.48251-0.07423-0.85367-0.07423-1.4104 0-2.7094 0.51962-1.299 0.4825-2.1156 1.596-0.77943 1.1135-0.77943 3.0435v10.318h-5.5303v-20.265h4.1941l0.81655 3.4147h0.25981q0.89078-1.5589 2.4496-2.6723t3.6002-1.1135z"/>
  <path d="m133.57 35.264-7.7201-20.265h5.7901l3.8972 11.543q0.33404 1.0392 0.51962 2.1527 0.22269 1.1135 0.25981 2.0043h0.14846q0.11135-2.0043 0.81655-4.157l3.8972-11.543h5.7901l-7.7201 20.265z"/>
  <path d="m152.65 7.0563q1.2248 0 2.1156 0.59385 0.89078 0.55674 0.89078 2.1156 0 1.5217-0.89078 2.1156-0.89078 0.59385-2.1156 0.59385-1.2619 0-2.1527-0.59385-0.85367-0.59385-0.85367-2.1156 0-1.5589 0.85367-2.1156 0.89078-0.59385 2.1527-0.59385zm2.7466 7.9428v20.265h-5.5302v-20.265z"/>
  <path d="m179.59 25.095q0 5.0477-2.6723 7.7943-2.6352 2.7466-7.2005 2.7466-2.8208 0-5.0478-1.2248-2.1898-1.2248-3.4518-3.5631-1.2619-2.3754-1.2619-5.7529 0-5.0477 2.6352-7.7572t7.2376-2.7095q2.8579 0 5.0478 1.2248t3.4518 3.5631q1.2619 2.3012 1.2619 5.6787zm-13.993 0q0 3.0064 0.96501 4.5652 1.0021 1.5217 3.2291 1.5217 2.1898 0 3.1548-1.5217 1.0021-1.5589 1.0021-4.5652t-1.0021-4.491q-0.96501-1.5217-3.192-1.5217-2.1898 0-3.192 1.5217-0.96501 1.4846-0.96501 4.491z"/>
 </g>
 <g transform="translate(204.88 38.692)">
  <rect transform="matrix(1 0 -.65457 .756 0 0)" x="-227.39" y="-51.179" width="48.271" height="16.799" fill="#5fbcd3"/>
  <rect transform="matrix(1 0 -.65457 .756 0 0)" x="-214.56" y="-31.581" width="48.271" height="16.799" fill="#f55"/>
  <rect transform="matrix(1 0 -.65457 .756 0 0)" x="-201.73" y="-11.982" width="48.271" height="16.799" fill="#5fd35f"/>
 </g>
</svg>
